<?xml version="1.0" encoding="utf-8"?>
<!-- Generator: Adobe Illustrator 28.1.0, SVG Export Plug-In . SVG Version: 6.00 Build 0)  -->
<svg version="1.1" id="Layer_1" xmlns="http://www.w3.org/2000/svg" xmlns:xlink="http://www.w3.org/1999/xlink" x="0px" y="0px"
	 viewBox="0 0 75.08 18.77" style="enable-background:new 0 0 75.08 18.77;" xml:space="preserve">
<style type="text/css">
	.st0{fill:#5440ED;}
</style>
<g>
	<g>
		<path class="st0" d="M34.47,10h-1.42V8.9c0-0.35-0.1-0.61-0.3-0.77c-0.2-0.16-0.47-0.25-0.8-0.25c-0.24,0-0.46,0.03-0.66,0.09
			c-0.2,0.06-0.37,0.14-0.52,0.22V10h-1.41V8.11c0-0.19,0.04-0.34,0.11-0.46c0.07-0.12,0.19-0.23,0.36-0.34
			c0.23-0.15,0.53-0.28,0.9-0.39c0.37-0.11,0.78-0.16,1.23-0.16c0.79,0,1.41,0.18,1.85,0.53c0.44,0.35,0.66,0.87,0.66,1.56V10z
			 M30.77,9.41v3.04c-0.06,0.02-0.15,0.05-0.26,0.06c-0.11,0.02-0.24,0.03-0.37,0.03c-0.27,0-0.46-0.05-0.59-0.14
			c-0.13-0.09-0.19-0.26-0.19-0.5V9.41H30.77z M34.47,9.41v3.04c-0.06,0.02-0.15,0.05-0.27,0.06c-0.12,0.02-0.24,0.03-0.38,0.03
			c-0.27,0-0.46-0.05-0.59-0.14c-0.13-0.09-0.19-0.26-0.19-0.5V9.41H34.47z"/>
		<path class="st0" d="M36.56,9.43l3.17-0.47c-0.02-0.31-0.14-0.57-0.35-0.79c-0.21-0.22-0.51-0.33-0.9-0.33
			c-0.41,0-0.75,0.14-1.02,0.42c-0.27,0.28-0.41,0.69-0.42,1.21l0.04,0.59c0.07,0.51,0.27,0.88,0.59,1.13
			c0.32,0.24,0.73,0.36,1.22,0.36c0.33,0,0.63-0.05,0.91-0.15c0.28-0.1,0.5-0.21,0.68-0.32c0.1,0.06,0.19,0.15,0.25,0.25
			c0.07,0.11,0.1,0.22,0.1,0.35c0,0.2-0.09,0.37-0.27,0.51c-0.18,0.14-0.42,0.26-0.72,0.33c-0.3,0.08-0.65,0.12-1.04,0.12
			c-0.6,0-1.14-0.11-1.6-0.33c-0.47-0.22-0.83-0.56-1.09-1c-0.26-0.45-0.39-1-0.39-1.65c0-0.48,0.07-0.9,0.22-1.26
			c0.14-0.36,0.34-0.66,0.6-0.9c0.25-0.24,0.55-0.42,0.88-0.55c0.33-0.12,0.69-0.18,1.06-0.18c0.51,0,0.96,0.11,1.34,0.32
			c0.39,0.21,0.69,0.5,0.91,0.87c0.22,0.37,0.33,0.79,0.33,1.26c0,0.22-0.05,0.38-0.16,0.49c-0.11,0.11-0.26,0.17-0.46,0.19
			l-3.81,0.55L36.56,9.43z"/>
		<path class="st0" d="M43.66,9.86h-1.41V8.13c0-0.2,0.05-0.36,0.14-0.49c0.09-0.13,0.22-0.26,0.39-0.38
			c0.23-0.15,0.53-0.27,0.89-0.36c0.36-0.09,0.75-0.14,1.16-0.14c0.73,0,1.09,0.22,1.09,0.66c0,0.11-0.02,0.21-0.05,0.3
			c-0.03,0.09-0.07,0.17-0.12,0.24c-0.08-0.02-0.18-0.03-0.29-0.05C45.35,7.9,45.23,7.9,45.1,7.9c-0.29,0-0.56,0.03-0.81,0.09
			c-0.25,0.06-0.46,0.14-0.63,0.25V9.86z M43.66,9.46v2.99c-0.06,0.02-0.15,0.05-0.26,0.06c-0.11,0.02-0.24,0.03-0.37,0.03
			c-0.27,0-0.46-0.05-0.59-0.14c-0.13-0.09-0.19-0.26-0.19-0.5V9.37L43.66,9.46z"/>
		<path class="st0" d="M49,6.76c0.76,0,1.36,0.16,1.81,0.49c0.45,0.33,0.68,0.84,0.68,1.53v2.71c0,0.19-0.05,0.33-0.14,0.44
			c-0.09,0.11-0.21,0.2-0.35,0.29c-0.22,0.13-0.49,0.23-0.83,0.31c-0.33,0.08-0.71,0.12-1.13,0.12c-0.77,0-1.38-0.15-1.83-0.45
			c-0.45-0.3-0.67-0.75-0.67-1.34c0-0.52,0.17-0.92,0.5-1.2c0.33-0.28,0.82-0.45,1.45-0.52l1.61-0.16V8.76
			c0-0.32-0.11-0.55-0.33-0.69c-0.22-0.14-0.52-0.21-0.92-0.21c-0.31,0-0.6,0.04-0.89,0.12c-0.29,0.08-0.55,0.17-0.77,0.28
			c-0.08-0.06-0.15-0.15-0.21-0.25C46.93,7.9,46.9,7.79,46.9,7.67c0-0.28,0.15-0.48,0.46-0.61c0.22-0.1,0.47-0.18,0.76-0.23
			C48.41,6.78,48.7,6.76,49,6.76z M49.04,11.57c0.24,0,0.46-0.02,0.65-0.08c0.19-0.05,0.33-0.1,0.42-0.16V9.97l-1.19,0.12
			c-0.32,0.02-0.57,0.09-0.74,0.21c-0.17,0.12-0.26,0.29-0.26,0.52c0,0.23,0.09,0.41,0.27,0.55C48.38,11.5,48.66,11.57,49.04,11.57z
			"/>
		<path class="st0" d="M52.99,9.69V5.47c0.06-0.02,0.15-0.05,0.27-0.07c0.12-0.02,0.24-0.04,0.38-0.04c0.26,0,0.45,0.05,0.58,0.15
			c0.12,0.1,0.19,0.27,0.19,0.51v3.67H52.99z M54.4,9.37v1.41c0,0.26,0.08,0.44,0.23,0.55c0.16,0.11,0.37,0.16,0.65,0.16
			c0.13,0,0.26-0.02,0.41-0.05c0.15-0.03,0.27-0.08,0.38-0.12c0.05,0.06,0.11,0.14,0.15,0.23c0.05,0.09,0.07,0.19,0.07,0.31
			c0,0.22-0.11,0.4-0.32,0.55c-0.21,0.15-0.54,0.22-1,0.22c-0.61,0-1.09-0.14-1.45-0.41c-0.36-0.27-0.53-0.72-0.53-1.35v-1.5H54.4z
			 M53.83,7.05h2.31c0.03,0.05,0.06,0.12,0.09,0.22c0.03,0.1,0.05,0.21,0.05,0.32c0,0.2-0.04,0.34-0.13,0.43
			c-0.09,0.09-0.21,0.14-0.36,0.14h-1.96V7.05z"/>
		<path class="st0" d="M62.89,9.7c0,0.59-0.12,1.11-0.35,1.56s-0.57,0.78-0.99,1.02c-0.43,0.24-0.93,0.36-1.51,0.36
			c-0.57,0-1.07-0.12-1.5-0.36c-0.43-0.24-0.76-0.58-1-1.02c-0.23-0.44-0.35-0.96-0.35-1.56c0-0.6,0.12-1.12,0.36-1.56
			c0.24-0.44,0.57-0.78,1-1.02c0.43-0.24,0.93-0.36,1.5-0.36c0.56,0,1.06,0.12,1.48,0.36c0.43,0.24,0.76,0.58,1,1.02
			C62.77,8.58,62.89,9.1,62.89,9.7z M60.04,7.88c-0.43,0-0.77,0.16-1.03,0.48c-0.25,0.32-0.38,0.77-0.38,1.34
			c0,0.58,0.12,1.03,0.37,1.34c0.25,0.31,0.59,0.47,1.04,0.47c0.44,0,0.78-0.16,1.03-0.48c0.25-0.32,0.38-0.76,0.38-1.33
			c0-0.57-0.13-1.02-0.38-1.34C60.82,8.04,60.48,7.88,60.04,7.88z"/>
		<path class="st0" d="M69.24,10h-1.42V8.9c0-0.35-0.1-0.61-0.3-0.77c-0.2-0.16-0.47-0.25-0.8-0.25c-0.24,0-0.46,0.03-0.66,0.09
			c-0.2,0.06-0.37,0.14-0.52,0.22V10h-1.41V8.11c0-0.19,0.04-0.34,0.11-0.46c0.07-0.12,0.19-0.23,0.36-0.34
			c0.23-0.15,0.53-0.28,0.9-0.39c0.37-0.11,0.78-0.16,1.23-0.16c0.79,0,1.41,0.18,1.85,0.53c0.44,0.35,0.66,0.87,0.66,1.56V10z
			 M65.54,9.41v3.04c-0.06,0.02-0.15,0.05-0.26,0.06c-0.11,0.02-0.24,0.03-0.37,0.03c-0.27,0-0.46-0.05-0.59-0.14
			c-0.13-0.09-0.19-0.26-0.19-0.5V9.41H65.54z M69.24,9.41v3.04c-0.06,0.02-0.15,0.05-0.27,0.06c-0.12,0.02-0.24,0.03-0.38,0.03
			c-0.27,0-0.46-0.05-0.59-0.14c-0.13-0.09-0.19-0.26-0.19-0.5V9.41H69.24z"/>
	</g>
</g>
<g>
	<g>
		<path class="st0" d="M8.39,15.92L8.39,15.92c-1.01,0-1.83-0.82-1.83-1.83v-3.66c0-1.01,0.82-1.83,1.83-1.83h0
			c1.01,0,1.83,0.82,1.83,1.83v3.66C10.22,15.1,9.4,15.92,8.39,15.92z"/>
		<g>
			<path class="st0" d="M20.67,3.55c-1.01,0-1.83,0.82-1.83,1.83c0,0,0,3.36,0,3.36c0-0.14-0.34-0.46-0.43-0.57
				c-0.26-0.33-0.54-0.65-0.82-0.96c-0.8-0.86-1.69-1.65-2.67-2.3c-1.13-0.75-2.39-1.31-3.73-1.52C9.7,3.18,7.83,3.37,6.54,4.23
				c-0.42,0.28-0.77,0.7-0.88,1.19C5.49,6.26,6.03,7.06,6.56,7.74C6.44,7.58,7.04,7,7.12,6.94c0.76-0.58,1.86-0.42,2.7-0.12
				c2.47,0.87,4.78,2.61,6.59,4.46c1.2,1.23,2.17,2.65,3.16,4.05c0.08,0.12,0.17,0.24,0.28,0.32c0.12,0.1,0.28,0.15,0.43,0.18
				c0.58,0.12,1.22-0.06,1.65-0.47c0.71-0.68,0.57-1.68,0.57-2.58c0-0.88,0-1.76,0-2.63c0-1.53,0-3.07,0-4.6c0-0.05,0-0.11,0-0.16
				C22.5,4.38,21.67,3.55,20.67,3.55z"/>
		</g>
	</g>
</g>
</svg>
